<svg height='300px' width='300px'  fill="#FFFFFF" xmlns="http://www.w3.org/2000/svg" xmlns:osb="http://www.openswatchbook.org/uri/2009/osb" version="1.1" viewBox="0 0 64 64" x="0px" y="0px"><path d="m25.5 32c-9.1150542 0-16.5 7.3849458-16.5 16.5v6c0 2.4670542 2.0329458 4.5 4.5 4.5h18a1.50015 1.50015 0 1 0 0-3h-18c-0.85694585 0-1.5-0.64305415-1.5-1.5v-6c0-7.5049458 5.9950542-13.5 13.5-13.5h13c1.3451063 0 2.6376951 0.19436413 3.8574219 0.5546875a1.50015 1.50015 0 1 0 0.84960937-2.8769531c-1.4925263-0.44091195-3.0733463-0.67773438-4.7070312-0.67773438z" style="color-rendering:auto;color:#000000;dominant-baseline:auto;font-feature-settings:normal;font-variant-alternates:normal;font-variant-caps:normal;font-variant-ligatures:normal;font-variant-numeric:normal;font-variant-position:normal;image-rendering:auto;isolation:auto;mix-blend-mode:normal;paint-order:fill markers stroke;shape-padding:0;shape-rendering:auto;solid-color:#000000;text-decoration-color:#000000;text-decoration-line:none;text-decoration-style:solid;text-indent:0;text-orientation:mixed;text-transform:none;white-space:normal;" fill="#FFFFFF"></path><path d="m32 5c-6.60965 0-12 5.39035-12 12s5.39035 12 12 12 12-5.39035 12-12-5.39035-12-12-12zm0 3c4.9883297 0 9 4.0116703 9 9s-4.0116703 9-9 9-9-4.0116703-9-9 4.0116703-9 9-9z" style="color-rendering:auto;color:#000000;dominant-baseline:auto;font-feature-settings:normal;font-variant-alternates:normal;font-variant-caps:normal;font-variant-ligatures:normal;font-variant-numeric:normal;font-variant-position:normal;image-rendering:auto;isolation:auto;mix-blend-mode:normal;paint-order:fill markers stroke;shape-padding:0;shape-rendering:auto;solid-color:#000000;text-decoration-color:#000000;text-decoration-line:none;text-decoration-style:solid;text-indent:0;text-orientation:mixed;text-transform:none;white-space:normal;" fill="#FFFFFF"></path><path d="m45 37c-6.60965 0-12 5.39035-12 12s5.39035 12 12 12c2.1925542 0 4.343574-0.60010252 6.21875-1.7363281a1.5002912 1.5002912 0 1 0-1.5546875-2.5664063c-1.4065214 0.85225367-3.0194839 1.3027344-4.6640625 1.3027344-4.9883297 0-9-4.0116703-9-9s4.0116703-9 9-9 9 4.0116703 9 9c0 1.644402-0.45065351 3.2576429-1.3027344 4.6640625a1.5002912 1.5002912 0 1 0 2.5664063 1.5546875c1.1359953-1.8750403 1.7363281-4.0264313 1.7363281-6.21875 0-6.60965-5.39035-12-12-12z" style="color-rendering:auto;color:#000000;dominant-baseline:auto;font-feature-settings:normal;font-variant-alternates:normal;font-variant-caps:normal;font-variant-ligatures:normal;font-variant-numeric:normal;font-variant-position:normal;image-rendering:auto;isolation:auto;mix-blend-mode:normal;paint-order:fill markers stroke;shape-padding:0;shape-rendering:auto;solid-color:#000000;text-decoration-color:#000000;text-decoration-line:none;text-decoration-style:solid;text-indent:0;text-orientation:mixed;text-transform:none;white-space:normal;" fill="#FFFFFF"></path><path d="m45 43.999848c-0.831 0-1.5 0.669-1.5 1.5v2h-2c-0.831 0-1.5 0.669-1.5 1.5s0.669 1.5 1.5 1.5h2v2c0 0.831 0.669 1.5 1.5 1.5 0.83100001 0 1.5-0.669 1.5-1.5v-2h2c0.83100001 0 1.5-0.669 1.5-1.5s-0.66899999-1.5-1.5-1.5h-2v-2c0-0.831-0.66899999-1.5-1.5-1.5z" style="paint-order:fill markers stroke;" fill="#FFFFFF"></path></svg>