<svg height='300px' width='300px'  fill="#FFFFFF" xmlns="http://www.w3.org/2000/svg" data-name="Layer 1" viewBox="0 0 100 100" x="0px" y="0px"><title>Artboard 76</title><rect x="35" y="33" width="30" height="6"></rect><rect x="35" y="48" width="30" height="6"></rect><path d="M70,18H30A11,11,0,0,0,19,29V59A11,11,0,0,0,30,70h7.22L47.83,81.08A3,3,0,0,0,50,82h0a3,3,0,0,0,2.12-.88L63.24,70H70A11,11,0,0,0,81,59V29A11,11,0,0,0,70,18Zm5,41a5,5,0,0,1-5,5H62a3,3,0,0,0-2.12.88L50,74.71l-9.38-9.79A3,3,0,0,0,38.5,64H30a5,5,0,0,1-5-5V29a5,5,0,0,1,5-5H70a5,5,0,0,1,5,5Z"></path></svg>