<svg height='300px' width='300px'  fill="#FFFFFF" xmlns="http://www.w3.org/2000/svg" xmlns:xlink="http://www.w3.org/1999/xlink" version="1.1" x="0px" y="0px" viewBox="0 0 96 96" style="enable-background:new 0 0 96 96;" xml:space="preserve"><g><path d="M23.2,45.5H10v31.1h13.2V45.5z M27.7,43l17.7-18.6l3.6-10.2c0.6-1.7,1.6-2.9,3-3.7c1.2-0.7,2.7-1.1,4.2-1   c1.4,0.1,2.9,0.6,4.1,1.4c1.6,1.1,2.9,2.7,3.5,5c1.6,5.6,1.6,10.7,0.7,15.1c-0.6,2.9-1.6,5.6-2.9,8.1h22c1.9,0,3.7,0.8,5,2.1l0,0   c1.3,1.3,2.1,3,2.1,5v1.1c0,1.9-0.8,3.7-2,4.9c1,1.3,1.5,2.9,1.5,4.6v1.1c0,2-1.2,3.7-2.9,5l-0.3,0.2c0.9,1.2,1.5,2.7,1.5,4.4v1.1   c0,4.4-2.5,6.1-5.4,6.7c0.4,0.9,0.6,1.8,0.6,2.8v1.1c0,2-0.8,3.7-2.1,5c-1.3,1.3-3,2.1-5,2.1H47.3c-0.4,0-0.7-0.1-1-0.3l-18.6-8.4   v1.1c0,1.2-1,2.3-2.2,2.3H7.7c-1.2,0-2.3-1-2.3-2.3V43.2c0-1.2,1-2.3,2.3-2.3h17.8C26.6,40.9,27.6,41.8,27.7,43L27.7,43z M49,27.2   L28.6,48.6v24.5l19.2,8.7h28.7c0.7,0,1.3-0.3,1.8-0.7c0.5-0.5,0.7-1.1,0.7-1.8v-1.1c0-0.7-0.3-1.3-0.7-1.8l0,0   c-0.5-0.5-1.1-0.7-1.8-0.7h-2.1v-4.5c1.1,0,2.1,0,3.2,0c0.3,0,0.7,0,1.4,0c2.1,0,4.8-0.3,4.8-2.6v-1.1c0-0.7-0.3-1.3-0.7-1.8   c-0.5-0.5-1.1-0.7-1.8-0.7h-2.2v-4.5h2.2c1,0,2.2-0.4,3.1-1.1c0.6-0.5,1-1,1-1.4V57c0-0.8-0.2-1.5-0.7-2c-0.3-0.4-0.8-0.6-1.4-0.6   h-2.1v-4.5h2.1c0.7,0,1.3-0.3,1.8-0.7l0,0c0.5-0.5,0.7-1.1,0.7-1.8v-1.1c0-0.7-0.3-1.3-0.7-1.8l0,0c-0.5-0.5-1.1-0.7-1.8-0.7h-26v0   c-0.4,0-0.9-0.1-1.2-0.4c-1-0.7-1.3-2.1-0.6-3.1c1.9-2.9,3.5-6.2,4.4-10c0.8-3.8,0.8-8.1-0.6-13c-0.3-1.2-1-2-1.8-2.6   c-0.6-0.4-1.2-0.6-1.8-0.6c-0.6-0.1-1.1,0.1-1.6,0.3c-0.5,0.3-0.8,0.7-1,1.3l-3.7,10.5C49.4,26.6,49.2,26.9,49,27.2L49,27.2z"></path></g></svg>