<svg height='300px' width='300px'  fill="#FFFFFF" xmlns:dc="http://purl.org/dc/elements/1.1/" xmlns:cc="http://creativecommons.org/ns#" xmlns:rdf="http://www.w3.org/1999/02/22-rdf-syntax-ns#" xmlns:svg="http://www.w3.org/2000/svg" xmlns="http://www.w3.org/2000/svg" xmlns:sodipodi="http://sodipodi.sourceforge.net/DTD/sodipodi-0.dtd" xmlns:inkscape="http://www.inkscape.org/namespaces/inkscape" viewBox="0 0 24.000001 24.000001" version="1.1" x="0px" y="0px"><g transform="translate(0,-1028.3622)"><path style="color:#000000;font-style:normal;font-variant:normal;font-weight:normal;font-stretch:normal;font-size:medium;line-height:normal;font-family:sans-serif;font-variant-ligatures:normal;font-variant-position:normal;font-variant-caps:normal;font-variant-numeric:normal;font-variant-alternates:normal;font-feature-settings:normal;text-indent:0;text-align:start;text-decoration:none;text-decoration-line:none;text-decoration-style:solid;text-decoration-color:#000000;letter-spacing:normal;word-spacing:normal;text-transform:none;writing-mode:lr-tb;direction:ltr;text-orientation:mixed;dominant-baseline:auto;baseline-shift:baseline;text-anchor:start;white-space:normal;shape-padding:0;clip-rule:nonzero;display:inline;overflow:visible;visibility:visible;opacity:1;isolation:auto;mix-blend-mode:normal;color-interpolation:sRGB;color-interpolation-filters:linearRGB;solid-color:#000000;solid-opacity:1;vector-effect:none;fill:#FFFFFF;fill-opacity:1;fill-rule:nonzero;stroke:none;stroke-width:2;stroke-linecap:butt;stroke-linejoin:round;stroke-miterlimit:4;stroke-dasharray:none;stroke-dashoffset:0;stroke-opacity:1;color-rendering:auto;image-rendering:auto;shape-rendering:auto;text-rendering:auto;enable-background:accumulate" d="m 6,1031.3613 c -1.6447028,0 -3,1.3553 -3,3 v 12 c 0,1.6447 1.3552972,3 3,3 h 12 c 1.644703,0 3,-1.3553 3,-3 v -7 h -2 v 7 c 0,0.5713 -0.428703,1 -1,1 H 6 c -0.5712972,0 -1,-0.4287 -1,-1 v -12 c 0,-0.5713 0.4287028,-1 1,-1 h 7 v -2 z"></path><g transform="rotate(45,4.7005491,1062.0874)"><path transform="translate(0,1028.3622)" d="m -7,1 c -0.554,0 -1,0.446 -1,1 v 13 l 2.5,4 2.5,-4 V 2 C -3,1.446 -3.446,1 -4,1 Z" style="opacity:1;fill:none;fill-opacity:1;stroke:#FFFFFF;stroke-width:2;stroke-linecap:round;stroke-linejoin:round;stroke-miterlimit:4;stroke-dasharray:none;stroke-opacity:1"></path><path d="m -8,1032.8622 h 5" style="" fill="none" stroke="#FFFFFF" stroke-width="1px" stroke-linecap="butt" stroke-linejoin="miter" stroke-opacity="1"></path><path style="" d="m -8,1042.8622 h 5" fill="none" stroke="#FFFFFF" stroke-width="1px" stroke-linecap="butt" stroke-linejoin="miter" stroke-opacity="1"></path></g></g></svg>